<svg width="256" height="256" viewBox="0 0 256 256" fill="none" xmlns="http://www.w3.org/2000/svg">
<path d="M128 24C107.431 24 87.3235 30.0995 70.2207 41.5272C53.118 52.9548 39.7881 69.1974 31.9166 88.2009C24.0451 107.204 21.9855 128.115 25.9984 148.289C30.0112 168.463 39.9163 186.994 54.4609 201.539C69.0056 216.084 87.5366 225.989 107.711 230.002C127.885 234.015 148.796 231.955 167.799 224.083C186.803 216.212 203.045 202.882 214.473 185.779C225.901 168.677 232 148.569 232 128C231.971 100.426 221.004 73.9905 201.507 54.4931C182.01 34.9956 155.574 24.0291 128 24ZM128 216C110.595 216 93.5814 210.839 79.1099 201.169C64.6383 191.5 53.3592 177.756 46.6986 161.676C40.0381 145.596 38.2954 127.902 41.6909 110.832C45.0864 93.7617 53.4676 78.0816 65.7747 65.7746C78.0817 53.4676 93.7618 45.0864 110.832 41.6909C127.902 38.2954 145.596 40.0381 161.676 46.6986C177.756 53.3591 191.5 64.6383 201.169 79.1098C210.839 93.5813 216 110.595 216 128C215.974 151.331 206.694 173.699 190.196 190.196C173.699 206.694 151.331 215.974 128 216ZM173.66 122.34C174.404 123.083 174.994 123.965 175.397 124.936C175.799 125.908 176.006 126.949 176.006 128C176.006 129.051 175.799 130.092 175.397 131.064C174.994 132.035 174.404 132.917 173.66 133.66L141.66 165.66C140.159 167.161 138.123 168.004 136 168.004C133.877 168.004 131.841 167.161 130.34 165.66C128.839 164.159 127.996 162.123 127.996 160C127.996 157.877 128.839 155.841 130.34 154.34L148.69 136H88C85.8783 136 83.8435 135.157 82.3432 133.657C80.8429 132.157 80 130.122 80 128C80 125.878 80.8429 123.843 82.3432 122.343C83.8435 120.843 85.8783 120 88 120H148.69L130.34 101.66C128.839 100.159 127.996 98.1229 127.996 96C127.996 93.8771 128.839 91.8411 130.34 90.34C131.841 88.8389 133.877 87.9956 136 87.9956C138.123 87.9956 140.159 88.8389 141.66 90.34L173.66 122.34Z" fill="black"/>
</svg>
