<svg width="256" height="256" viewBox="0 0 256 256" fill="none" xmlns="http://www.w3.org/2000/svg">
<path d="M149.66 50.34L221.66 122.34C222.404 123.083 222.994 123.965 223.396 124.936C223.799 125.908 224.006 126.949 224.006 128C224.006 129.051 223.799 130.092 223.396 131.064C222.994 132.035 222.404 132.917 221.66 133.66L149.66 205.66C148.541 206.78 147.115 207.543 145.562 207.852C144.01 208.161 142.4 208.003 140.938 207.397C139.475 206.791 138.225 205.765 137.346 204.448C136.467 203.131 135.999 201.583 136 200V136H40C37.8783 136 35.8434 135.157 34.3431 133.657C32.8429 132.157 32 130.122 32 128C32 125.878 32.8429 123.843 34.3431 122.343C35.8434 120.843 37.8783 120 40 120H136V56C135.999 54.4168 136.467 52.8689 137.346 51.5521C138.225 50.2354 139.475 49.209 140.938 48.603C142.4 47.997 144.01 47.8385 145.562 48.1478C147.115 48.457 148.541 49.2199 149.66 50.34Z" fill="black"/>
</svg>
