<svg width="256" height="256" viewBox="0 0 256 256" fill="none" xmlns="http://www.w3.org/2000/svg">
<path d="M128 232C148.569 232 168.677 225.901 185.779 214.473C202.882 203.045 216.212 186.803 224.083 167.799C231.955 148.796 234.014 127.885 230.002 107.711C225.989 87.5366 216.084 69.0056 201.539 54.4609C186.994 39.9162 168.463 30.0112 148.289 25.9983C128.115 21.9855 107.204 24.045 88.2009 31.9165C69.1974 39.788 52.9548 53.118 41.5271 70.2207C30.0994 87.3234 24 107.431 24 128C24.0291 155.574 34.9955 182.009 54.493 201.507C73.9905 221.004 100.426 231.971 128 232ZM128 40C145.405 40 162.419 45.1611 176.89 54.8307C191.362 64.5002 202.641 78.244 209.301 94.3239C215.962 110.404 217.705 128.098 214.309 145.168C210.914 162.238 202.532 177.918 190.225 190.225C177.918 202.532 162.238 210.914 145.168 214.309C128.098 217.705 110.404 215.962 94.3238 209.301C78.2439 202.641 64.5002 191.362 54.8306 176.89C45.1611 162.419 40 145.405 40 128C40.0264 104.669 49.3063 82.3013 65.8038 65.8038C82.3013 49.3064 104.669 40.0265 128 40ZM82.34 133.66C81.5961 132.917 81.0061 132.035 80.6035 131.064C80.2009 130.092 79.9937 129.051 79.9937 128C79.9937 126.949 80.2009 125.908 80.6035 124.936C81.0061 123.965 81.5961 123.083 82.34 122.34L114.34 90.34C115.841 88.8389 117.877 87.9955 120 87.9955C122.123 87.9955 124.159 88.8389 125.66 90.34C127.161 91.8411 128.004 93.8771 128.004 96C128.004 98.1229 127.161 100.159 125.66 101.66L107.31 120H168C170.122 120 172.157 120.843 173.657 122.343C175.157 123.843 176 125.878 176 128C176 130.122 175.157 132.157 173.657 133.657C172.157 135.157 170.122 136 168 136H107.31L125.66 154.34C127.161 155.841 128.004 157.877 128.004 160C128.004 162.123 127.161 164.159 125.66 165.66C124.159 167.161 122.123 168.004 120 168.004C117.877 168.004 115.841 167.161 114.34 165.66L82.34 133.66Z" fill="black"/>
</svg>
