<svg width="231" height="215" viewBox="0 0 231 215" fill="none" xmlns="http://www.w3.org/2000/svg">
<path d="M154.384 62.3731C150.243 62.3714 146.11 62.7059 142.024 63.3731C140.57 48.3567 134.432 34.1774 124.478 22.841C114.523 11.5047 101.256 3.58527 86.5537 0.203115C85.2333 -0.100236 83.8574 -0.0632815 82.5552 0.310514C81.253 0.684309 80.067 1.3827 79.1085 2.3402C78.15 3.29769 77.4504 4.48293 77.0752 5.78476C76.7001 7.0866 76.6617 8.46238 76.9637 9.78311C78.848 17.9918 78.8581 26.5195 76.9935 34.7326C75.1288 42.9458 71.4372 50.6331 66.1931 57.2233C60.949 63.8136 54.2871 69.1373 46.7025 72.7989C39.118 76.4604 30.8058 78.3657 22.3837 78.3731C18.147 78.3733 13.9238 77.897 9.79367 76.9531C8.47225 76.6491 7.09524 76.6859 5.79197 77.0602C4.4887 77.4344 3.30194 78.1338 2.34315 79.0926C1.38435 80.0514 0.684991 81.2381 0.310748 82.5414C-0.0634964 83.8447 -0.100343 85.2217 0.203671 86.5431C2.35284 95.8104 6.31178 104.562 11.8531 112.295C17.3944 120.027 24.4089 126.589 32.4937 131.603C26.8077 139.349 23.3793 148.52 22.5889 158.096C21.7986 167.673 23.6772 177.281 28.0163 185.854C32.3554 194.428 38.9853 201.632 47.1701 206.666C55.3549 211.7 64.7746 214.368 74.3837 214.373H154.384C174.54 214.373 193.871 206.366 208.124 192.113C222.377 177.86 230.384 158.53 230.384 138.373C230.384 118.217 222.377 98.8858 208.124 84.633C193.871 70.3802 174.54 62.3731 154.384 62.3731ZM19.7537 94.3731H22.3837C41.4728 94.3519 59.7739 86.7594 73.272 73.2614C86.77 59.7634 94.3625 41.4622 94.3837 22.3731V19.7031C103.596 24.0141 111.45 30.7682 117.092 39.231C122.734 47.6938 125.947 57.5414 126.384 67.7031C116.612 71.5833 107.749 77.4416 100.349 84.9101C92.9492 92.3787 87.1732 101.296 83.3837 111.103C76.62 109.933 69.6915 110.113 62.9978 111.634C56.3042 113.154 49.9778 115.985 44.3837 119.963C33.6241 114.319 24.9827 105.341 19.7537 94.3731ZM154.384 198.373H74.3837C69.4599 198.364 64.5904 197.345 60.0761 195.379C55.5618 193.413 51.4988 190.542 48.1383 186.943C44.7778 183.345 42.1912 179.095 40.5385 174.457C38.8858 169.819 38.2021 164.891 38.5297 159.978C38.8572 155.065 40.1891 150.272 42.443 145.894C44.6968 141.517 47.8247 137.648 51.6332 134.527C55.4417 131.407 59.85 129.1 64.5853 127.751C69.3206 126.402 74.2823 126.038 79.1637 126.683C78.7937 129.053 78.5337 131.473 78.3937 133.913C78.3333 134.964 78.4804 136.016 78.8266 137.01C79.1728 138.003 79.7114 138.919 80.4116 139.705C81.1117 140.49 81.9597 141.13 82.9072 141.588C83.8547 142.046 84.8831 142.313 85.9337 142.373C86.9843 142.434 88.0364 142.286 89.0302 141.94C90.0239 141.594 90.9397 141.055 91.7253 140.355C92.5108 139.655 93.1508 138.807 93.6087 137.86C94.0665 136.912 94.3333 135.884 94.3937 134.833C94.6187 130.843 95.2486 126.886 96.2737 123.023C96.2737 122.863 96.3637 122.703 96.3937 122.543C99.3341 111.738 105.237 101.969 113.436 94.3413C121.634 86.7133 131.802 81.5295 142.792 79.3751C153.781 77.2207 165.154 78.1815 175.626 82.1492C186.098 86.1169 195.252 92.9333 202.055 101.829C208.857 110.724 213.038 121.344 214.123 132.49C215.209 143.636 213.157 154.863 208.199 164.904C203.241 174.945 195.574 183.4 186.065 189.314C176.556 195.228 165.582 198.366 154.384 198.373Z" fill="black"/>
</svg>
