<svg width="256" height="256" viewBox="0 0 256 256" fill="none" xmlns="http://www.w3.org/2000/svg">
<path d="M208.31 75.68C210.755 67.792 211.54 59.4828 210.614 51.2765C209.688 43.0702 207.072 35.1448 202.93 28C202.228 26.7836 201.218 25.7735 200.001 25.0713C198.785 24.3692 197.405 23.9997 196 24C186.682 23.9805 177.488 26.1406 169.154 30.3078C160.82 34.475 153.575 40.5338 148 48H124C118.425 40.5338 111.18 34.475 102.846 30.3078C94.5117 26.1406 85.3181 23.9805 76 24C74.5954 23.9997 73.2155 24.3692 71.999 25.0713C70.7825 25.7735 69.7723 26.7836 69.07 28C64.9285 35.1448 62.3123 43.0702 61.3863 51.2765C60.4603 59.4828 61.2447 67.792 63.69 75.68C58.7473 84.3072 56.0996 94.0577 56 104V112C56.0168 125.536 60.9307 138.609 69.8342 148.805C78.7377 159 91.0296 165.63 104.44 167.47C98.9661 174.475 95.9949 183.11 96 192V200H72C65.6348 200 59.5303 197.471 55.0294 192.971C50.5286 188.47 48 182.365 48 176C48 170.747 46.9654 165.546 44.9552 160.693C42.945 155.84 39.9986 151.43 36.2843 147.716C32.5699 144.001 28.1604 141.055 23.3073 139.045C18.4543 137.035 13.2529 136 8 136C5.87827 136 3.84344 136.843 2.34315 138.343C0.842855 139.843 0 141.878 0 144C0 146.122 0.842855 148.157 2.34315 149.657C3.84344 151.157 5.87827 152 8 152C14.3652 152 20.4697 154.529 24.9706 159.029C29.4714 163.53 32 169.635 32 176C32 186.609 36.2143 196.783 43.7157 204.284C51.2172 211.786 61.3913 216 72 216H96V232C96 234.122 96.8429 236.157 98.3431 237.657C99.8434 239.157 101.878 240 104 240C106.122 240 108.157 239.157 109.657 237.657C111.157 236.157 112 234.122 112 232V192C112 185.635 114.529 179.53 119.029 175.029C123.53 170.529 129.635 168 136 168C142.365 168 148.47 170.529 152.971 175.029C157.471 179.53 160 185.635 160 192V232C160 234.122 160.843 236.157 162.343 237.657C163.843 239.157 165.878 240 168 240C170.122 240 172.157 239.157 173.657 237.657C175.157 236.157 176 234.122 176 232V192C176.005 183.11 173.034 174.475 167.56 167.47C180.97 165.63 193.262 159 202.166 148.805C211.069 138.609 215.983 125.536 216 112V104C215.9 94.0577 213.253 84.3072 208.31 75.68ZM200 112C200 122.609 195.786 132.783 188.284 140.284C180.783 147.786 170.609 152 160 152H112C101.391 152 91.2172 147.786 83.7157 140.284C76.2143 132.783 72 122.609 72 112V104C72.0981 96.0002 74.4931 88.1972 78.9 81.52C79.7215 80.4372 80.2536 79.1629 80.446 77.8175C80.6385 76.472 80.485 75.0997 80 73.83C77.9157 68.4561 76.9126 62.7236 77.0481 56.9613C77.1837 51.1989 78.4553 45.5199 80.79 40.25C87.3372 40.9543 93.6418 43.1231 99.2367 46.5957C104.832 50.0683 109.573 54.7555 113.11 60.31C113.831 61.437 114.823 62.3654 115.995 63.01C117.167 63.6546 118.482 63.995 119.82 64H152.17C153.513 64 154.834 63.6621 156.012 63.0172C157.19 62.3723 158.187 61.4413 158.91 60.31C162.446 54.755 167.188 50.0674 172.783 46.5948C178.378 43.1221 184.683 40.9536 191.23 40.25C193.562 45.5213 194.83 51.2009 194.962 56.9633C195.094 62.7256 194.087 68.4574 192 73.83C191.516 75.0876 191.355 76.4459 191.529 77.7819C191.704 79.1178 192.209 80.389 193 81.48C197.452 88.1568 199.882 95.9762 200 104V112Z" fill="black"/>
</svg>
