<svg width="176" height="224" viewBox="0 0 176 224" fill="none" xmlns="http://www.w3.org/2000/svg">
<path d="M88 48C80.0887 48 72.3552 50.346 65.7772 54.7412C59.1992 59.1365 54.0723 65.3836 51.0448 72.6927C48.0173 80.0017 47.2252 88.0444 48.7686 95.8036C50.312 103.563 54.1216 110.69 59.7157 116.284C65.3098 121.878 72.4371 125.688 80.1964 127.231C87.9556 128.775 95.9983 127.983 103.307 124.955C110.616 121.928 116.864 116.801 121.259 110.223C125.654 103.645 128 95.9113 128 88C128 77.3913 123.786 67.2172 116.284 59.7157C108.783 52.2143 98.6087 48 88 48ZM88 112C83.2532 112 78.6131 110.592 74.6663 107.955C70.7195 105.318 67.6434 101.57 65.8269 97.1844C64.0104 92.799 63.5351 87.9734 64.4612 83.3178C65.3872 78.6623 67.673 74.3859 71.0294 71.0294C74.3859 67.673 78.6623 65.3872 83.3178 64.4612C87.9734 63.5351 92.799 64.0104 97.1844 65.8269C101.57 67.6434 105.318 70.7195 107.955 74.6663C110.592 78.6131 112 83.2532 112 88C112 94.3652 109.471 100.47 104.971 104.971C100.47 109.471 94.3652 112 88 112ZM88 0C64.6691 0.0264673 42.3013 9.30637 25.8038 25.8038C9.30637 42.3013 0.0264673 64.6691 0 88C0 119.4 14.51 152.68 42 184.25C54.3523 198.516 68.2546 211.361 83.45 222.55C84.7951 223.492 86.3977 223.998 88.04 223.998C89.6823 223.998 91.2849 223.492 92.63 222.55C107.797 211.357 121.673 198.511 134 184.25C161.45 152.68 176 119.4 176 88C175.974 64.6691 166.694 42.3013 150.196 25.8038C133.699 9.30637 111.331 0.0264673 88 0ZM88 206C71.47 193 16 145.25 16 88C16 68.9044 23.5857 50.5909 37.0883 37.0883C50.5909 23.5857 68.9044 16 88 16C107.096 16 125.409 23.5857 138.912 37.0883C152.414 50.5909 160 68.9044 160 88C160 145.23 104.53 193 88 206Z" fill="black"/>
</svg>
