<svg width="176" height="241" viewBox="0 0 176 241" fill="none" xmlns="http://www.w3.org/2000/svg">
<path d="M176 88.0523C176.009 73.2223 172.27 58.6306 165.13 45.6325C157.99 32.6344 147.681 21.6515 135.16 13.7039C122.64 5.75637 108.314 1.10191 93.5129 0.172868C78.712 -0.756173 63.9164 2.07034 50.5003 8.38989C37.0842 14.7094 25.4828 24.317 16.7736 36.3203C8.0644 48.3235 2.52992 62.3331 0.684226 77.0478C-1.16147 91.7625 0.741478 106.705 6.21632 120.487C11.6912 134.27 20.5603 146.445 32 155.882V232.052C31.999 233.417 32.347 234.759 33.0109 235.951C33.6747 237.142 34.6324 238.145 35.7928 238.862C36.9533 239.58 38.2779 239.989 39.6409 240.05C41.0039 240.111 42.3599 239.823 43.58 239.212L88 217.052L132.43 239.262C133.544 239.794 134.765 240.064 136 240.052C138.122 240.052 140.157 239.209 141.657 237.709C143.157 236.209 144 234.174 144 232.052V155.882C154.009 147.639 162.07 137.281 167.602 125.554C173.135 113.826 176.003 101.019 176 88.0523ZM16 88.0523C16 73.812 20.2227 59.8915 28.1342 48.0512C36.0457 36.2109 47.2905 26.9824 60.4468 21.5329C73.6031 16.0834 88.0799 14.6576 102.047 17.4357C116.013 20.2139 128.842 27.0712 138.912 37.1406C148.981 47.2099 155.838 60.0391 158.617 74.0058C161.395 87.9724 159.969 102.449 154.519 115.605C149.07 128.762 139.841 140.007 128.001 147.918C116.161 155.83 102.24 160.052 88 160.052C68.9109 160.031 50.6097 152.439 37.1117 138.941C23.6137 125.443 16.0212 107.141 16 88.0523ZM128 219.112L91.57 200.902C90.4586 200.346 89.2328 200.057 87.99 200.057C86.7472 200.057 85.5215 200.346 84.41 200.902L48 219.112V166.422C60.3837 172.752 74.0926 176.052 88 176.052C101.907 176.052 115.616 172.752 128 166.422V219.112ZM88 144.052C99.0758 144.052 109.903 140.768 119.112 134.615C128.321 128.461 135.499 119.715 139.737 109.483C143.976 99.2499 145.085 87.9901 142.924 77.1272C140.763 66.2643 135.43 56.286 127.598 48.4543C119.766 40.6225 109.788 35.2891 98.9251 33.1283C88.0621 30.9675 76.8024 32.0765 66.5697 36.315C56.3371 40.5535 47.5911 47.7312 41.4377 56.9403C35.2844 66.1495 32 76.9765 32 88.0523C32.0159 102.9 37.921 117.134 48.4196 127.633C58.9182 138.131 73.1528 144.036 88 144.052ZM88 48.0523C95.9113 48.0523 103.645 50.3982 110.223 54.7935C116.801 59.1887 121.928 65.4359 124.955 72.7449C127.983 80.054 128.775 88.0966 127.231 95.8559C125.688 103.615 121.878 110.742 116.284 116.337C110.69 121.931 103.563 125.74 95.8036 127.284C88.0444 128.827 80.0017 128.035 72.6927 125.007C65.3836 121.98 59.1365 116.853 54.7412 110.275C50.346 103.697 48 95.9635 48 88.0523C48 77.4436 52.2143 67.2694 59.7157 59.768C67.2172 52.2665 77.3913 48.0523 88 48.0523Z" fill="black"/>
</svg>
