<svg width="231" height="215" viewBox="0 0 231 215" fill="none" xmlns="http://www.w3.org/2000/svg">
<path d="M154.384 62.3731C150.243 62.371 146.11 62.7054 142.024 63.3731C140.57 48.3567 134.432 34.1774 124.478 22.841C114.523 11.5047 101.256 3.58527 86.5537 0.203115C85.2333 -0.100236 83.8574 -0.0632815 82.5552 0.310514C81.253 0.684309 80.067 1.3827 79.1085 2.3402C78.15 3.29769 77.4504 4.48293 77.0752 5.78476C76.7001 7.0866 76.6617 8.46238 76.9637 9.78311C78.848 17.9918 78.8581 26.5195 76.9935 34.7326C75.1288 42.9458 71.4372 50.6331 66.1931 57.2233C60.949 63.8136 54.2871 69.1373 46.7025 72.7989C39.118 76.4604 30.8058 78.3657 22.3837 78.3731C18.147 78.3733 13.9238 77.897 9.79367 76.9531C8.47225 76.6491 7.09524 76.6859 5.79197 77.0602C4.4887 77.4344 3.30194 78.1338 2.34315 79.0926C1.38435 80.0514 0.684991 81.2381 0.310748 82.5414C-0.0634964 83.8447 -0.100343 85.2217 0.203671 86.5431C2.35284 95.8104 6.31178 104.562 11.8531 112.295C17.3944 120.027 24.4089 126.589 32.4937 131.603C26.8077 139.349 23.3793 148.52 22.5889 158.096C21.7986 167.673 23.6772 177.281 28.0163 185.854C32.3554 194.428 38.9853 201.632 47.1701 206.666C55.3549 211.7 64.7746 214.368 74.3837 214.373H154.384C174.54 214.373 193.871 206.366 208.124 192.113C222.377 177.86 230.384 158.53 230.384 138.373C230.384 118.217 222.377 98.8858 208.124 84.633C193.871 70.3802 174.54 62.3731 154.384 62.3731ZM19.7537 94.3731H22.3837C41.4728 94.3519 59.7739 86.7594 73.272 73.2614C86.77 59.7634 94.3625 41.4622 94.3837 22.3731V19.7031C103.603 24.0189 111.461 30.781 117.103 39.2532C122.745 47.7254 125.955 57.5831 126.384 67.7531C116.616 71.6396 107.756 77.5001 100.357 84.9678C92.9577 92.4356 87.1796 101.35 83.3837 111.153C80.4117 110.635 77.4005 110.374 74.3837 110.373C63.6297 110.372 53.1429 113.724 44.3837 119.963C33.6241 114.319 24.9827 105.341 19.7537 94.3731Z" fill="black"/>
</svg>
